<svg width="98" height="97" viewBox="0 0 98 97" fill="none" xmlns="http://www.w3.org/2000/svg">
<path fill-rule="evenodd" clip-rule="evenodd" d="M45.455 0.540897C39.1036 1.07599 34.1056 2.22123 29.3683 4.22718C27.151 5.16599 24.056 6.83515 22.2007 8.09289C19.7727 9.73868 18.3309 10.8303 16.6255 12.3141C15.4785 13.3122 12.995 15.7718 12.0183 16.8772C11.5951 17.3563 11.1009 17.9116 10.9202 18.1112C10.3515 18.7393 8.45317 21.3177 7.43203 22.8489C2.41012 30.3791 -0.242784 40.0066 0.017489 49.7581C0.0610634 51.3948 0.167579 53.1587 0.253847 53.6776C0.340262 54.1966 0.549185 55.6011 0.7182 56.7988C0.887216 57.9964 1.15233 59.4336 1.30726 59.9925C1.46219 60.5514 1.68593 61.4006 1.80448 61.8797C2.42919 64.4051 4.35747 69.0384 5.92145 71.7727C6.72164 73.1715 8.35355 75.6462 9.21638 76.7694C9.49881 77.137 9.9256 77.6936 10.1647 78.006C11.5359 79.7975 14.8357 83.1884 17.0761 85.1082C18.6472 86.4547 18.8826 86.6454 19.4864 87.0616C19.7689 87.2563 20.0329 87.455 20.0733 87.5035C20.1546 87.6009 22.6405 89.2634 23.4477 89.7602C28.2219 92.6977 33.7464 94.7886 39.1821 95.7149C40.3324 95.9109 41.3727 96.1012 41.4937 96.1376C42.6616 96.4894 50.763 96.636 53.6711 96.358C54.5183 96.277 56.565 95.9559 58.2192 95.6443C63.7203 94.6086 67.4414 93.2563 72.6707 90.3928C73.6102 89.8784 76.4653 88.01 77.1425 87.4665C77.3669 87.2865 77.9345 86.8452 78.4041 86.4859C82.3163 83.4924 86.6919 78.8133 89.2646 74.8724C89.7075 74.1937 90.151 73.5404 90.2501 73.4207C90.3489 73.3009 90.6846 72.7456 90.9958 72.1867C94.2398 66.3605 95.4982 62.5514 96.8469 54.4761C97.0736 53.1187 97.0745 44.1047 96.8481 42.6448C96.4218 39.8954 95.893 37.113 95.6206 36.1847C95.4565 35.6258 95.2043 34.7439 95.0603 34.225C94.7348 33.0536 93.7517 30.4231 93.134 29.0714C92.5486 27.7902 91.5497 25.7967 91.3921 25.5952C91.3262 25.511 91.075 25.0829 90.834 24.6438C90.3844 23.8249 90.086 23.3589 88.9956 21.7728C87.303 19.3104 85.9388 17.6809 83.4579 15.1576C77.7668 9.36922 71.9771 5.63503 64.748 3.09036C63.2694 2.56993 60.0061 1.69223 58.5126 1.41336C54.4516 0.655145 48.6785 0.269431 45.455 0.540897ZM69.2228 27.5232C70.207 28.0287 70.9611 28.8138 71.4765 29.8699L71.9371 30.8135V45.5482V60.2828L71.43 61.2767C70.8501 62.4136 70.0335 63.197 68.9855 63.6217C68.2856 63.9054 67.8848 63.9129 51.5011 63.9514L34.7332 63.9906L30.2876 68.3791C27.8424 70.7927 25.7217 72.8654 25.5745 72.9851C25.3162 73.1956 25.3104 72.4991 25.403 51.922C25.4849 33.6935 25.5298 30.5538 25.7154 30.0332C26.0452 29.1082 26.9968 28.0917 28.0236 27.5678L28.9234 27.1086L48.743 27.1464L68.5626 27.1842L69.2228 27.5232ZM34.8468 38.58C34.8626 39.7777 34.9121 40.7576 34.9568 40.7576C35.0016 40.7576 41.2113 40.7576 48.7561 40.7576H62.474V38.58V36.4025H48.6461H34.8182L34.8468 38.58ZM34.8182 45.5482V47.7257H48.6461H62.474V45.5482V43.3706H48.6461H34.8182V45.5482ZM34.8182 52.3711V54.5487H44.0245H53.2309V52.3711V50.1936H44.0245H34.8182V52.3711Z" fill="#00C2BA"/>
</svg>
