<svg width="55" height="55" viewBox="0 0 55 55" fill="none" xmlns="http://www.w3.org/2000/svg">
<path fill-rule="evenodd" clip-rule="evenodd" d="M25.7543 0.0497013C22.1557 0.356108 19.3239 1.0119 16.6398 2.16055C15.3835 2.69813 13.6299 3.65393 12.5787 4.37415C11.203 5.31656 10.3861 5.94168 9.41983 6.79132C8.76994 7.36282 7.36284 8.77124 6.80947 9.40426C6.56964 9.67858 6.28967 9.99654 6.18726 10.1108C5.86506 10.4705 4.78947 11.947 4.21091 12.8238C1.36555 17.1358 -0.137559 22.6487 0.0099091 28.2326C0.0345979 29.1698 0.0949482 30.1798 0.143827 30.477C0.192789 30.7742 0.311162 31.5784 0.406925 32.2642C0.502687 32.95 0.652898 33.773 0.740681 34.093C0.828463 34.4131 0.955232 34.8994 1.0224 35.1737C1.37635 36.6198 2.4689 39.2729 3.35503 40.8386C3.80841 41.6397 4.73303 43.0567 5.2219 43.6999C5.38192 43.9104 5.62374 44.2291 5.75924 44.408C6.53614 45.4338 8.40576 47.3755 9.67511 48.4749C10.5653 49.2459 10.6987 49.3551 11.0408 49.5934C11.2008 49.7049 11.3505 49.8187 11.3733 49.8465C11.4194 49.9023 12.8279 50.8542 13.2852 51.1387C15.9902 52.8208 19.1204 54.0181 22.2001 54.5485C22.8519 54.6607 23.4413 54.7697 23.5099 54.7906C24.1716 54.992 28.7618 55.0759 30.4095 54.9167C30.8895 54.8704 32.0491 54.6865 32.9864 54.5081C36.1033 53.915 38.2116 53.1407 41.1744 51.501C41.7068 51.2064 43.3244 50.1365 43.7081 49.8253C43.8352 49.7222 44.1569 49.4695 44.423 49.2638C46.6395 47.5496 49.1187 44.8702 50.5764 42.6136C50.8273 42.225 51.0786 41.8509 51.1347 41.7823C51.1908 41.7137 51.381 41.3958 51.5573 41.0757C53.3953 37.7395 54.1083 35.5583 54.8725 30.9342C55.0009 30.157 55.0014 24.9953 54.8731 24.1593C54.6316 22.585 54.332 20.9917 54.1776 20.4602C54.0847 20.1401 53.9418 19.6351 53.8601 19.338C53.6758 18.6672 53.1187 17.1609 52.7688 16.3869C52.4371 15.6533 51.8711 14.5118 51.7818 14.3964C51.7445 14.3482 51.6021 14.103 51.4656 13.8516C51.2109 13.3826 51.0418 13.1158 50.424 12.2076C49.465 10.7976 48.692 9.86445 47.2864 8.41953C44.0619 5.105 40.7815 2.96672 36.6856 1.50958C35.8478 1.21157 33.9988 0.708983 33.1526 0.549295C30.8517 0.115122 27.5807 -0.105747 25.7543 0.0497013ZM39.2209 15.5004C39.7786 15.7898 40.2058 16.2394 40.4979 16.8441L40.7588 17.3845V25.8219V34.2593L40.4715 34.8284C40.1429 35.4794 39.6802 35.928 39.0864 36.1712C38.6899 36.3337 38.4628 36.338 29.18 36.36L19.6795 36.3825L17.1606 38.8954C15.7752 40.2775 14.5736 41.4643 14.4903 41.5329C14.3439 41.6535 14.3406 41.2546 14.3931 29.4717C14.4395 19.0336 14.4649 17.2358 14.5701 16.9377C14.7569 16.408 15.2961 15.8259 15.8779 15.5259L16.3877 15.263L27.6173 15.2846L38.8469 15.3063L39.2209 15.5004ZM19.7438 21.8318C19.7528 22.5176 19.7808 23.0787 19.8062 23.0787C19.8315 23.0787 23.3499 23.0787 27.6247 23.0787H35.3971V21.8318V20.5849H27.5623H19.7276L19.7438 21.8318ZM19.7276 25.8219V27.0688H27.5623H35.3971V25.8219V24.575H27.5623H19.7276V25.8219ZM19.7276 29.7289V30.9758H24.9438H30.1601V29.7289V28.482H24.9438H19.7276V29.7289Z" fill="white"/>
</svg>
